<svg width="77" height="77" viewBox="0 0 77 77" fill="none" xmlns="http://www.w3.org/2000/svg">
<circle cx="38.115" cy="38.115" r="38.115" fill="white"/>
<path fill-rule="evenodd" clip-rule="evenodd" d="M6.41675 38.5187C6.41675 20.8101 20.8171 6.41675 38.5001 6.41675C56.1831 6.41675 70.5834 20.8101 70.5834 38.5187C70.5834 56.19 56.1831 70.5834 38.5001 70.5834C20.8171 70.5834 6.41675 56.19 6.41675 38.5187ZM50.2681 41.7657C50.6087 41.4252 51.0423 40.899 51.1352 40.7752C51.6307 40.1251 51.8784 39.3204 51.8784 38.5187C51.8784 37.6179 51.5997 36.7822 51.0732 36.1012C51.0301 36.0581 50.9456 35.9661 50.8355 35.8463C50.6295 35.622 50.3338 35.3002 50.0513 35.0178C47.5119 32.2939 40.8846 27.8366 37.4161 26.4746C36.8897 26.2611 35.558 25.7937 34.8458 25.7627C34.1645 25.7627 33.5141 25.9175 32.8947 26.227C32.1205 26.6604 31.5012 27.3413 31.1605 28.1461C30.9437 28.7033 30.6031 30.3748 30.6031 30.4057C30.2624 32.232 30.0766 35.2035 30.0766 38.4846C30.0766 41.614 30.2624 44.4586 30.5411 46.3159C30.5488 46.3235 30.5754 46.4563 30.6168 46.6627C30.7426 47.29 31.0047 48.5969 31.2844 49.1326C31.9657 50.4327 33.2973 51.2375 34.7219 51.2375H34.8458C35.7748 51.2065 37.7258 50.4017 37.7258 50.3708C41.0085 49.0088 47.4809 44.7682 50.0822 41.9514L50.2681 41.7657Z" fill="#7e22ce"/>
</svg>
